<svg width="113" height="29" viewBox="0 0 113 29" fill="none" xmlns="http://www.w3.org/2000/svg">
<path d="M11.457 13.5233C11.457 14.0855 11.29 14.635 10.9772 15.1023C10.6644 15.5697 10.2198 15.934 9.69965 16.1491C9.17948 16.3642 8.6071 16.4205 8.0549 16.3109C7.50269 16.2012 6.99545 15.9305 6.59733 15.533C6.19921 15.1355 5.92809 14.6291 5.81825 14.0778C5.70841 13.5265 5.76478 12.955 5.98024 12.4357C6.19571 11.9164 6.56057 11.4725 7.02871 11.1602C7.49685 10.8479 8.04724 10.6812 8.61026 10.6812C9.36526 10.6812 10.0893 10.9807 10.6232 11.5137C11.1571 12.0467 11.457 12.7696 11.457 13.5233Z" fill="#119DD8"/>
<path d="M8.61027 18.3653C7.6498 18.3684 6.71002 18.0868 5.90996 17.5562C5.1099 17.0256 4.48555 16.27 4.11598 15.3849C3.74641 14.4998 3.64825 13.5251 3.83393 12.5842C4.01961 11.6434 4.48078 10.7787 5.15903 10.0998C5.83728 9.4208 6.7021 8.95806 7.64396 8.77017C8.58581 8.58227 9.56233 8.67767 10.4498 9.04428C11.3374 9.41088 12.0959 10.0322 12.6295 10.8296C13.1631 11.6269 13.4476 12.5644 13.4471 13.5233C13.4471 14.8053 12.9379 16.0349 12.0312 16.9426C11.1245 17.8502 9.89426 18.3619 8.61027 18.3653ZM16.5215 5.73851C15.432 5.35611 13.6929 4.92204 9.25466 4.92204C8.58831 4.91733 7.92322 4.98053 7.26972 5.11066C5.99431 5.30221 4.77892 5.77969 3.71477 6.50726C2.65062 7.23483 1.76535 8.1936 1.1254 9.31159C0.48545 10.4296 0.107448 11.6778 0.019761 12.9625C-0.0679256 14.2472 0.136981 15.535 0.619103 16.7294C1.10122 17.9237 1.84804 18.9935 2.80349 19.8585C3.75895 20.7235 4.89822 21.3611 6.13582 21.7237C7.37341 22.0862 8.67718 22.1641 9.94926 21.9517C11.2213 21.7392 12.4287 21.2418 13.4807 20.4969C13.0511 22.1712 11.7805 24.3493 8.12633 24.3493C4.64299 24.3493 2.74604 22.3753 2.74604 22.3753L0.846508 24.4836C1.81036 25.4783 2.96729 26.2663 4.24658 26.7994C5.52586 27.3326 6.90061 27.5995 8.28678 27.5841C13.4911 27.5841 17.1193 24.8608 17.1193 19.2774V13.8515C17.1193 13.7378 17.1193 13.6267 17.1193 13.513C17.1193 13.3993 17.1193 13.2856 17.1193 13.172V13.1384C17.0512 11.4949 16.5034 9.90708 15.5433 8.5703L15.4941 8.52638L16.8476 7.54455C17.4377 7.11565 17.4713 6.9012 17.4506 6.57048C17.4273 6.16224 16.9615 5.89095 16.5215 5.73851Z" fill="#1E3261"/>
<path d="M90.3083 7.53421C90.1439 7.1645 89.9563 6.80551 89.7467 6.45937C88.7659 4.89103 87.8187 5.09256 87.8187 5.09256C87.7005 5.09517 87.5841 5.12144 87.4763 5.16983C87.3685 5.21821 87.2716 5.28772 87.1912 5.37424C87.1108 5.46075 87.0486 5.5625 87.0084 5.67345C86.9682 5.7844 86.9507 5.9023 86.9569 6.02013C86.9569 7.15698 86.9725 13.7843 86.9828 18.3136V21.9929H90.8362C90.8362 20.6881 90.9941 14.9522 90.9941 13.4148C90.9941 11.8775 91.8507 9.16972 95.5669 8.5057L96.3433 8.33517L96.3744 4.90912H95.95C94.8777 4.92408 93.8208 5.16524 92.8485 5.61676C91.8762 6.06828 91.0105 6.71996 90.3083 7.52904" fill="#1E3261"/>
<path d="M30.3747 14.3579C29.8856 14.9935 29.2386 15.8074 28.5942 16.5024C27.1993 18.0165 25.9183 18.311 25.248 18.125C24.5777 17.939 24.0679 17.6677 24.0084 15.5413L23.716 5.20625H20.1136C20.0929 8.04838 20.0411 16.4171 20.0411 16.4171C20.0204 19.5176 21.3972 22.0394 25.1316 22.0394C26.2987 22.0394 27.704 21.7681 29.7406 19.5099C30.0427 19.2067 30.3253 18.8848 30.5869 18.5462C30.8115 19.2837 31.1133 19.9956 31.4875 20.67C32.4683 22.2409 33.4155 22.0394 33.4155 22.0394C33.5339 22.0364 33.6505 22.0098 33.7584 21.9612C33.8664 21.9126 33.9635 21.8429 34.044 21.7562C34.1246 21.6695 34.1869 21.5676 34.2274 21.4565C34.2679 21.3454 34.2858 21.2273 34.2799 21.1092C34.2928 19.559 34.5671 8.04579 34.5852 5.20625H30.5326C30.5326 5.90387 30.3928 11.3504 30.3747 14.3605" fill="#1E3261"/>
<path d="M61.453 17.908C61.1376 18.0813 60.7725 18.1423 60.4178 18.0811C59.6673 17.9364 58.8857 17.6238 58.5157 15.4973L56.7041 5.14941H53.0319C53.4459 7.99154 54.6597 16.3603 54.6597 16.3603C55.11 19.4608 56.2124 21.9825 59.3386 21.9825C59.688 21.9798 60.0357 21.9338 60.3738 21.8456C60.278 21.9154 60.0658 22.2771 59.82 24.0444C59.4861 26.4473 60.5006 28.9897 61.5177 28.9897C62.1698 28.9897 62.4001 28.6667 62.6693 27.8244C62.9384 26.9821 69.1054 5.1675 69.1054 5.1675H64.8069L61.453 17.908Z" fill="#1E3261"/>
<path d="M84.2577 10.4203C84.2887 5.44137 78.8878 4.94788 77.1409 4.94788H77.0969C75.3501 4.94788 69.9413 5.68683 69.9077 11.2005C69.8896 14.0427 69.8818 15.0193 69.8818 15.0193C69.8611 18.1198 71.3854 22.073 76.9882 21.9955C81.0357 21.9386 83.458 20.8457 83.458 20.8457L83.4451 18.1741C83.4451 18.1741 78.2253 19.1714 75.6373 18.4971C75.1197 18.3575 74.2942 17.8744 74.0147 16.5644C74.5841 16.4791 75.6632 16.2879 77.4618 15.8797C83.7919 14.4354 84.2396 12.3762 84.2525 10.4203M73.9293 13.7275V12.0661C73.9293 12.0093 73.9293 11.9679 73.9293 11.9111C73.9293 9.60896 74.7911 8.7279 77.0788 8.7279C79.1776 8.7279 80.2179 9.39451 80.2128 10.5159C80.2128 11.2445 79.9385 11.9266 78.4789 12.5389C77.3298 13.0169 74.8998 13.5285 73.9164 13.7275" fill="#1E3261"/>
<path d="M44.2382 4.94012C40.1907 5.16749 37.7684 6.36377 37.7684 6.36377L37.7839 9.36092C37.7839 9.36092 43.0167 8.16464 45.5891 8.70981C47.4395 9.10254 47.3411 11.0352 47.3411 11.0352C46.142 11.0727 44.9469 11.1936 43.7646 11.3969C37.4708 12.402 36.9817 14.8617 36.9713 16.8202C36.9403 21.7965 42.2041 21.9877 44.0855 21.9877C46.9503 21.9877 51.3317 21.6337 51.3317 16.5257C51.3317 13.6835 51.355 11.6165 51.355 11.6165C51.3757 8.51603 49.8514 4.64041 44.2486 4.94012M47.3825 15.3578C47.3696 17.6573 47.0461 18.404 44.202 18.404C42.1006 18.404 41.0007 17.7943 41.0085 16.6729C41.0085 15.9443 41.2828 15.2622 42.7424 14.6499C43.8888 14.1719 46.2594 13.9548 47.3825 13.8592V15.3578Z" fill="#1E3261"/>
<path d="M112.042 5.07707L112.07 0H108.67L108.287 6.28368C107.268 5.39088 105.957 4.90184 104.601 4.90912H103.501C101.398 4.90912 97.6683 6.48004 97.6373 11.1747C97.6192 14.0168 97.6036 16.3655 97.6036 16.3655C97.5829 19.466 98.9623 21.9903 102.694 21.9903C103.864 21.9903 105.266 21.7164 107.306 19.4582C107.521 19.2231 107.999 18.8071 108.175 18.6004C108.447 19.3142 108.775 20.0053 109.156 20.6674C110.137 22.2357 111.084 22.0342 111.084 22.0342C111.202 22.0312 111.319 22.0047 111.426 21.9563C111.534 21.9078 111.631 21.8383 111.712 21.7519C111.792 21.6655 111.855 21.5639 111.895 21.4531C111.936 21.3423 111.954 21.2245 111.948 21.1066C111.948 20.484 111.967 18.2077 111.982 15.5257C111.982 14.9134 111.982 14.1719 111.998 13.2856C111.998 12.9601 111.998 12.6526 111.998 12.3891L112.036 5.06932L112.042 5.07707ZM107.94 14.3166C107.451 14.9522 106.801 15.7635 106.159 16.4611C104.762 17.9726 103.483 18.2697 102.811 18.0811C102.138 17.8925 101.649 17.6238 101.661 15.4973C101.661 15.4973 101.661 15.239 101.682 12.4123C101.695 10.1102 102.549 8.69173 104.839 8.69173C107.13 8.69173 107.966 10.1102 107.945 12.4123C107.945 12.9032 107.945 13.5802 107.945 14.3062" fill="#1E3261"/>
</svg>
