<svg width="23" height="30" viewBox="0 0 23 30" fill="none" xmlns="http://www.w3.org/2000/svg">
<path d="M11.24 17.5494C9.98622 17.5535 8.75942 17.1859 7.715 16.4933C6.67058 15.8006 5.85554 14.8141 5.37309 13.6587C4.89065 12.5033 4.76251 11.2309 5.0049 10.0027C5.24729 8.77452 5.84932 7.64578 6.73472 6.75944C7.62012 5.8731 8.74908 5.26903 9.9786 5.02375C11.2081 4.77847 12.4829 4.903 13.6415 5.38158C14.8 5.86016 15.7903 6.67125 16.4868 7.71213C17.1834 8.75301 17.5548 9.97685 17.5541 11.2287C17.5541 12.9021 16.8895 14.5073 15.7058 15.6922C14.5222 16.8771 12.9162 17.545 11.24 17.5494ZM21.5676 1.06615C20.1453 0.566966 17.8751 0.000320991 12.0812 0.000320991C11.2114 -0.00583851 10.3432 0.0766631 9.49007 0.246542C7.82512 0.4966 6.23851 1.11991 4.84935 2.0697C3.46018 3.01949 2.30452 4.27108 1.46912 5.73054C0.633717 7.19 0.140264 8.81942 0.0257964 10.4965C-0.0886716 12.1736 0.178819 13.8548 0.808191 15.4139C1.43756 16.973 2.41247 18.3695 3.65974 19.4987C4.90702 20.6279 6.39425 21.4603 8.00984 21.9335C9.62542 22.4068 11.3274 22.5086 12.988 22.2312C14.6486 21.9538 16.2247 21.3046 17.5981 20.3321C17.0373 22.5177 15.3785 25.3611 10.6083 25.3611C6.06106 25.3611 3.58475 22.7842 3.58475 22.7842L1.10505 25.5364C2.36328 26.835 3.87357 27.8637 5.54358 28.5596C7.21359 29.2555 9.00822 29.6041 10.8178 29.5839C17.6116 29.5839 22.348 26.0289 22.348 18.7401V11.657C22.348 11.5086 22.348 11.3636 22.348 11.2152C22.348 11.0668 22.348 10.9184 22.348 10.7699V10.7261C22.259 8.58063 21.5439 6.5079 20.2906 4.76284L20.2264 4.7055L21.9933 3.4238C22.7635 2.8639 22.8075 2.58395 22.7804 2.15222C22.75 1.61931 22.1419 1.26515 21.5676 1.06615Z" fill="#1E3261"/>
</svg>
